<?xml version="1.0" encoding="utf-8"?>
<!-- Generator: Adobe Illustrator 27.6.1, SVG Export Plug-In . SVG Version: 6.00 Build 0)  -->
<svg version="1.1" id="Layer_1" xmlns="http://www.w3.org/2000/svg" xmlns:xlink="http://www.w3.org/1999/xlink" x="0px" y="0px"
	 viewBox="0 0 343.8 89.1" style="enable-background:new 0 0 343.8 89.1;" xml:space="preserve">
<style type="text/css">
	.st0{fill:#FFFFFF;}
</style>
<g>
	<path class="st0" d="M33.1,87.8c-0.4-0.7-0.8-1.5-1.2-2.2c-0.3-0.8-0.7-1.5-1-2.3L0.2,2.7c0-0.2,0-0.4-0.1-0.5C0,2,0,1.8,0,1.7
		C0,0.6,0.7,0,2.2,0h19.3c1.5,0,2.6,0.8,3.1,2.3L43,56.9c1.6-4.6,3.2-9.1,4.7-13.6c1.5-4.5,3-9.1,4.4-13.6c1.5-4.6,2.9-9.1,4.4-13.6
		c1.5-4.5,3.1-9.1,4.7-13.6C61.8,0.8,62.9,0,64.6,0h18.9c0.9,0,1.6,0.2,2,0.5C85.8,0.9,86,1.3,86,1.9c0,0.3,0,0.5-0.1,0.7v0.2
		L55,83.3c-0.2,0.6-0.4,1.2-0.7,1.9c-0.3,0.7-0.6,1.3-1,1.9c-0.4,0.6-0.8,1.1-1.3,1.5c-0.5,0.4-1,0.6-1.6,0.6H35.6
		C34.3,89.1,33.5,88.7,33.1,87.8L33.1,87.8z"/>
	<path class="st0" d="M96.8,2.8c0-0.8,0.2-1.5,0.7-2C97.9,0.3,98.6,0,99.4,0h59.5c0.9,0,1.6,0.3,2,0.8s0.7,1.2,0.7,2.1v14.8
		c0,0.7-0.2,1.3-0.7,1.9c-0.5,0.6-1.2,0.9-2.1,0.9H120v14.9h30c0.8,0,1.4,0.2,1.9,0.5c0.5,0.4,0.8,1,0.8,1.8v13
		c0,0.6-0.2,1.1-0.7,1.6c-0.4,0.5-1.1,0.8-1.9,0.8H120v15.4h40.3c1.8,0,2.7,0.9,2.7,2.8v15.1c0,0.4-0.2,0.8-0.5,1.1
		c-0.2,1.1-1,1.7-2.5,1.7H99.4c-0.8,0-1.4-0.2-1.9-0.6c-0.5-0.4-0.7-1.1-0.7-1.9V2.8z"/>
	<path class="st0" d="M174.6,2.6c0-0.8,0.2-1.4,0.8-1.9c0.5-0.5,1.2-0.7,2.1-0.7h69.7c0.8,0,1.4,0.2,2,0.7c0.5,0.4,0.8,1.1,0.8,2
		v12.1c0,0.3,0,0.6,0,0.9c0,0.3-0.1,0.6-0.3,1.1L206,68.5h41.2c0.8,0,1.4,0.2,1.9,0.7c0.5,0.4,0.8,1.1,0.8,2v14.9
		c0,0.7-0.2,1.3-0.8,2c-0.5,0.6-1.2,1-2,1h-69.7c-0.8,0-1.5-0.3-2-0.8c-0.5-0.5-0.8-1.2-0.8-2.2V73.2c0-0.6,0.1-1.2,0.4-1.6
		l43.3-51.1h-41.1c-0.9,0-1.6-0.2-2.1-0.7c-0.5-0.5-0.8-1.2-0.8-2.2C174.6,17.6,174.6,2.6,174.6,2.6z"/>
	<path class="st0" d="M289.2,2.3c0-0.2,0.2-0.5,0.4-0.8c0.2-0.3,0.5-0.5,0.8-0.8c0.3-0.2,0.7-0.4,1-0.6c0.4-0.1,0.7-0.2,1-0.2h15.4
		c0.7,0,1.3,0.2,1.7,0.6c0.5,0.4,0.8,0.8,1.1,1.1l1.5,3.4l31.5,81.2c0.3,0.8,0.3,1.5-0.2,2c-0.4,0.5-1.2,0.8-2.3,0.8h-17.2
		c-0.9,0-1.6-0.2-2.1-0.5c-0.5-0.3-0.9-0.9-1.2-1.7c-0.8-2-1.6-4.1-2.3-6.1c-0.8-2-1.5-4-2.3-6.1h-31.9c-0.8,2-1.5,4.1-2.3,6.1
		c-0.8,2-1.5,4.1-2.3,6.1c-0.5,1.5-1.5,2.2-3.1,2.2h-17.7c-0.8,0-1.4-0.2-1.9-0.6c-0.5-0.4-0.6-1-0.3-1.8L289.2,2.3L289.2,2.3z
		 M300.1,28c-0.8,2-1.5,4.2-2.3,6.6c-0.8,2.4-1.5,4.7-2.3,7.1c-0.8,2.4-1.5,4.8-2.3,7.1c-0.8,2.3-1.6,4.5-2.3,6.6h18.4L300.1,28z"/>
</g>
</svg>
