<svg xmlns="http://www.w3.org/2000/svg" viewBox="0 0 48 48" id="coral"><path fill-rule="evenodd" fill="#fff" d="m21,37.76c-.26.16-.49.33-.68.5-.26.24-.48.58-.67.98,0,0-.02-.02-.03-.02-.59-.47-1.67-1.02-2.74-1.25-.82-.18-1.64-.16-2.28.11-.46.2-1.03.71-1.56,1.39-.65.83-1.29,1.9-1.64,2.53h-2.23c.36-.99,1.23-1.79,2.17-2.5,1.49-1.12,3.24-1.98,4.23-2.69.45-.32.55-.95.23-1.39-.32-.45-.95-.55-1.39-.23-.67.48-1.66,1.02-2.7,1.66,1.01-1.36,2.09-2.49,2.87-3.04.45-.32.55-.95.23-1.39-.32-.45-.95-.55-1.39-.23-.98.7-2.41,2.2-3.67,3.98.06-.7.1-1.35.08-1.94-.05-1.45-.49-2.53-1.26-3.06-.46-.31-1.08-.2-1.39.26-.31.46-.2,1.08.26,1.39.19.13.25.38.31.67.1.51.11,1.15.07,1.85-.03.47-.07.96-.13,1.47-.54-1.15-1.24-2.04-2.11-2.64-.46-.31-1.08-.2-1.39.26-.31.46-.2,1.08.26,1.39.78.54,1.34,1.41,1.74,2.54.37,1.02.61,2.25.74,3.64h-1.92c-.55,0-1,.45-1,1s.45,1,1,1h38c.55,0,1-.45,1-1s-.45-1-1-1h-1.92c.14-1.39.38-2.61.74-3.64.41-1.13.96-2,1.74-2.54.45-.31.57-.93.26-1.39-.31-.45-.93-.57-1.39-.26-.87.6-1.57,1.49-2.11,2.64-.06-.51-.11-1-.13-1.47-.04-.7-.03-1.33.07-1.85.06-.29.12-.54.31-.67.45-.31.57-.93.26-1.39-.31-.45-.93-.57-1.39-.26-.77.53-1.21,1.6-1.26,3.06-.02.58.01,1.24.08,1.94-1.26-1.78-2.69-3.28-3.67-3.98-.45-.32-1.07-.22-1.39.23-.32.45-.22,1.07.23,1.39.77.55,1.85,1.68,2.87,3.04-1.04-.64-2.03-1.19-2.7-1.66-.45-.32-1.07-.22-1.39.23-.32.45-.22,1.07.23,1.39.99.71,2.74,1.57,4.23,2.69.94.7,1.81,1.51,2.17,2.5h-1.95c-.07-.43-.19-.94-.36-1.41-.21-.58-.53-1.08-.89-1.37-.59-.47-1.67-1.02-2.74-1.25-.82-.18-1.64-.16-2.28.11-.4.17-.76.53-1.02,1.02-.18-.26-.38-.54-.6-.82-.02-.55-.13-1.12-.19-1.67-.04-.41-.07-.81.1-1.18.14-.3.56-.54,1-.84.65-.44,1.4-.91,1.98-1.44,1.06-.96,1.62-2.11,1.04-3.52-.18-.43-.64-.82-1.45-.8-.68.02-1.87.36-2.84.59-.2.05-.46.09-.64.11-.01-.06-.02-.12-.01-.16,0-.22.03-.48.17-.6,1.11-.96,4.36-2.46,6.69-3.32.35-.13.8-.05,1.29.05,1.05.22,2.24.66,3.29.87,1.2.24,2.26.17,2.98-.37.72-.53,1.26-1.58,1.09-3.57-.03-.34-.2-.71-.65-.98-.48-.29-1.75-.52-3-.74-.43-.08-.96-.22-1.37-.34.57-.4,1.35-.83,2.12-1.31.98-.61,1.94-1.28,2.56-2.01.55-.64.85-1.33.85-2.04,0-1.62-1.45-3.09-3.06-3-.8.05-2.15.68-3.46,1.36-.86.45-1.69.93-2.26,1.09-.07-.15-.15-.35-.21-.49-.27-.68-.68-1.22-1.15-1.4-.55-.2-1.46-.29-2.23-.11-.67.16-1.21.53-1.5,1.06-.26.48-.31,1.32-.25,2.28.03.51.07,1.07.04,1.61-.02.39-.07.76-.26,1.05-.65,1.03-2.48,2.76-3.8,3.64-.2.13-.47.26-.63.34-.17-.14-.43-.38-.57-.59-.05-.07-.11-.2-.14-.26.03-.05.08-.14.12-.2.15-.22.35-.44.55-.67.55-.64,1.1-1.33,1.28-1.94.19-.66.05-1.29-.25-1.82-.32-.56-.82-.99-1-1.17-.45-.45-1.25-.57-2.21-.16-.69.29-1.54.85-2.26,1.19-.16.08-.41.16-.5.19-.15-.08-.22-.21-.25-.37-.06-.3-.04-.65,0-1.04.01-.09.1-.15.18-.24.14-.15.31-.31.5-.47.6-.53,1.28-1.14,1.71-1.93.37-.68.46-1.76.36-2.62-.07-.68-.28-1.22-.44-1.44-.21-.29-.53-.51-.96-.6-.34-.07-.79-.07-1.31.02-.74.12-1.69.4-2.64.59-.77.16-1.53.28-2.13.12-.26-.07-.26-.31-.29-.54-.06-.44-.07-.93-.15-1.41-.11-.65-.34-1.28-.82-1.8-.64-.7-1.78-1.28-4.01-1.28-2.07,0-3.99,1.75-3.47,3.75.27,1.01,1.02,2.17,1.56,3.16.14.26.27.5.35.72.03.09.08.17.07.24-.02.19-.19.27-.36.38-.41.27-.92.48-1.41.75-.8.44-1.53,1-1.94,1.86-.28.59-.42,1.32-.29,2.27.1.73.4,1.2.77,1.5.37.3.84.45,1.4.43.54-.02,1.21-.21,1.92-.52,1.24-.54,2.69-1.45,3.88-1.93.26-.1.5-.19.72-.23.09-.02.24-.02.28-.02.21.15.36.43.51.76.22.48.4,1.06.54,1.68.39,1.67.53,3.61.5,4.66-.21,0-.49-.02-.69-.04-.5-.05-.97-.07-1.3,0-.32.07-.57.21-.76.39-.33.33-.58.88-.65,1.5-.1.83.12,1.77.59,2.34,1.25,1.53,2.95,1.52,4.59,1.3.49-.07.97-.14,1.41-.16.39-.01.75,0,.99.29.52.64.88,1.59,1.15,2.71.43,1.78.61,3.94.62,5.99h0Zm7.75,4.24c-.14-.53-.33-1.1-.56-1.42-.31-.43-.65-.99-1.1-1.46-.32-.34-.7-.64-1.2-.69-1.26-.14-3.37.52-4.21,1.31-.28.26-.38.77-.48,1.27-.07.34-.11.69-.14,1h7.7Zm-9.91,0c-.03-.13-.06-.26-.1-.39-.09-.33-.17-.67-.37-.83-.41-.33-1.17-.7-1.91-.86-.39-.08-.77-.13-1.07,0-.24.1-.49.43-.77.78-.32.4-.63.87-.9,1.3h5.11Zm16,0c-.03-.13-.06-.26-.1-.39-.09-.33-.17-.67-.37-.83-.41-.33-1.17-.7-1.91-.86-.37-.08-.74-.13-1.03-.02-.02.04-.1.16-.13.25-.08.19-.13.42-.17.65-.07.4-.11.83-.13,1.2h3.84Zm-8.04-5.41c0-.06-.01-.13-.01-.19-.03-.64.04-1.26.31-1.83.19-.4.56-.81,1.06-1.2.54-.41,1.24-.84,1.88-1.3.34-.25.65-.51.88-.8.1-.13.17-.26.21-.4-.13.02-.27.04-.39.07-.82.19-1.79.48-2.46.57-.51.07-.92.01-1.17-.1-.6-.26-1-.89-1.09-1.67-.1-.92.26-2,.85-2.51,1.22-1.04,4.75-2.74,7.31-3.68.65-.24,1.48-.22,2.39-.03,1.05.22,2.23.66,3.28.87.35.07.67.12.97.1.16,0,.31-.03.43-.12.11-.08.17-.22.22-.4.07-.24.1-.54.09-.9-.59-.12-1.99-.4-2.89-.59-.96-.2-1.76-.51-2.15-.86-.4-.37-.55-.8-.48-1.27.04-.32.21-.69.56-1.04.42-.43,1.21-.92,2.1-1.46.96-.58,2.06-1.21,2.77-1.93.3-.3.56-.6.56-.94,0-.52-.42-1.03-.94-1-.62.04-1.64.61-2.66,1.14-1.32.68-2.63,1.31-3.33,1.36-.63.04-1.12-.26-1.48-.83-.16-.26-.29-.59-.42-.92-.04-.11-.12-.26-.16-.35-.21-.05-.47-.06-.73-.03-.11.01-.22.04-.31.08-.03.01-.07,0-.09.03-.06.12-.04.29-.04.49,0,.39.04.83.06,1.29.06,1.17,0,2.41-.55,3.27-.75,1.19-2.85,3.22-4.39,4.24-.55.36-1.05.6-1.41.69-.32.08-.59.06-.81,0-.26-.07-1.08-.61-1.63-1.33-.42-.56-.66-1.2-.6-1.73.05-.48.39-1.08.88-1.67.42-.5,1-1.02,1.15-1.51.05-.15-.07-.28-.15-.4-.12-.16-.26-.3-.37-.41-.24.1-.8.34-1.18.56-.71.4-1.45.81-2.01.97-.44.12-.83.11-1.14,0-1.46-.49-1.87-1.71-1.68-3.55.06-.59.44-1.16,1.02-1.71.5-.47,1.2-.94,1.59-1.66.22-.41.13-1.3.07-1.74-.24.02-.63.07-.94.14-1.57.35-3.62.93-5.01.54-1.19-.33-1.59-1.15-1.74-2.2-.05-.36-.06-.76-.11-1.16-.05-.37-.11-.75-.41-1.03-.42-.39-1.17-.57-2.48-.57-.46,0-.93.17-1.25.47-.22.2-.37.47-.29.78.23.87.91,1.85,1.38,2.7.46.84.72,1.62.64,2.18-.09.65-.41,1.15-.92,1.56-.35.28-.8.52-1.28.76-.89.45-2.01.86-1.8,2.41,0,.07.04.15.05.2.07,0,.21,0,.3-.02.29-.06.61-.18.95-.33,1.49-.65,3.28-1.8,4.59-2.19.9-.27,1.65-.2,2.16.15.67.45,1.24,1.39,1.63,2.59.76,2.35.93,5.73.81,6.85-.09.8-.62,1.25-1.49,1.34-.37.04-.84,0-1.29-.05-.17-.02-.42-.03-.58-.04-.02.1-.02.22-.02.34,0,.24.03.5.16.66.49.6,1.13.7,1.78.68.6-.02,1.21-.13,1.79-.2,1.39-.17,2.61-.05,3.43.96.68.83,1.2,2.05,1.55,3.5.41,1.67.61,3.64.66,5.58,1.09-.35,2.25-.54,3.13-.44.24.03.47.08.69.15h0Zm-8.8-4.59c.55,0,1,.45,1,1s-.45,1-1,1-1-.45-1-1,.45-1,1-1h0Zm7,0c.55,0,1,.45,1,1s-.45,1-1,1-1-.45-1-1,.45-1,1-1h0Zm12-4c.55,0,1,.45,1,1s-.45,1-1,1-1-.45-1-1,.45-1,1-1h0Zm-30.5-4c-1.38,0-2.5,1.12-2.5,2.5s1.12,2.5,2.5,2.5,2.5-1.12,2.5-2.5-1.12-2.5-2.5-2.5h0Zm0,2c.28,0,.5.22.5.5s-.22.5-.5.5-.5-.22-.5-.5.22-.5.5-.5h0Zm13.5-4c.55,0,1,.45,1,1s-.45,1-1,1-1-.45-1-1,.45-1,1-1h0Zm-10-2c.55,0,1,.45,1,1s-.45,1-1,1-1-.45-1-1,.45-1,1-1h0Zm23,0c.55,0,1,.45,1,1s-.45,1-1,1-1-.45-1-1,.45-1,1-1h0ZM12,11c.55,0,1,.45,1,1s-.45,1-1,1-1-.45-1-1,.45-1,1-1h0Zm16-3c.55,0,1,.45,1,1s-.45,1-1,1-1-.45-1-1,.45-1,1-1h0Zm9.5-4c-1.38,0-2.5,1.12-2.5,2.5s1.12,2.5,2.5,2.5,2.5-1.12,2.5-2.5-1.12-2.5-2.5-2.5h0Zm0,2c.28,0,.5.22.5.5s-.22.5-.5.5-.5-.22-.5-.5.22-.5.5-.5h0Z"></path></svg>