<?xml version="1.0" encoding="UTF-8"?>
<svg id="promotion" xmlns="http://www.w3.org/2000/svg" viewBox="0 0 61.01 41.97">
  <defs>
    <style>
      .cls-1 {
        fill: #fff;
      }
    </style>
  </defs>
  <path class="cls-1" d="m57.05,0c-.28,0-.5.22-.5.5,0,.14.05.27.15.36l1.1,1.11h-7.78c-.28,0-.5.22-.5.5v8.5h-7.5c-.28,0-.5.22-.5.5v7.5h-7.5c-.28,0-.5.22-.5.5v6.5h-4c-.28,0-.5.22-.5.5s.22.5.5.5h4.5c.28,0,.5-.22.5-.5v-6.5h7.5c.28,0,.5-.22.5-.5v-7.5h7.5c.28,0,.5-.22.5-.5V2.97h7.33l-1.16,1.17c-.2.19-.21.5-.03.71.19.2.5.21.71.03.01,0,.02-.02.03-.03l1.97-1.99c.19-.19.19-.51,0-.7l-1.97-1.99c-.09-.1-.22-.15-.36-.16h0Zm-3.55,5.97c-.28,0-.5.22-.5.5v34.5h-2V14.47c0-.28-.22-.5-.5-.5h-5c-.28,0-.5.22-.5.5v26.5h-2v-18.5c0-.28-.22-.5-.5-.5h-5c-.28,0-.5.22-.5.5v18.5h-2v-11.5c0-.28-.22-.5-.5-.5h-5c-.28,0-.5.22-.5.5v11.5h-12.49c-.28,0-.5.22-.5.5s.22.5.5.5h44c.28,0,.5-.22.5-.5s-.22-.5-.5-.5h-1.51V6.47c0-.28-.22-.5-.5-.5h-5Zm.5,1h4v34h-4V6.97h0Zm-35.69,7.77c-.1.01-.2.02-.3.05-.66.18-1.11.78-1.11,1.47l-9.27,6.49-5.72,1.53c-.27.07-.42.35-.35.61,0,0,0,0,0,0l.25.95-1.45.39c-.27.07-.42.35-.35.61h0s.52,1.96.52,1.96c.07.27.34.43.61.35,0,0,0,0,0,0l1.45-.39.26.95c.07.27.34.43.61.36,0,0,0,0,0,0l1.45-.39,3.1,11.59c.07.27.34.42.61.35l1.93-.52c.27-.07.42-.34.35-.61l-3.11-11.59,1.36-.36,1.91.17.31,1.16c.2.73.82,1.27,1.57,1.36l2.53.32c.41.07.87-.04,1.17-.38.31-.34.39-.88.21-1.43-.03-.1-.11-.3-.19-.53h0l3.78.33c.33.58,1.02.9,1.69.72.8-.22,1.27-1.04,1.06-1.84l-3.36-12.56c-.19-.69-.83-1.15-1.54-1.11h0Zm27.69.23h4v26h-4V14.97h0Zm-27.53.77c.2.03.36.17.41.37l3.36,12.56c.08.26-.07.53-.33.6,0,0-.01,0-.02,0-.26.08-.53-.07-.61-.33,0,0,0-.01,0-.02l-.64-2.38-2.15-8.03c0-.11-.02-.23-.09-.32l-.49-1.82s0,0,0-.01c-.07-.26.08-.53.33-.6,0,0,.01,0,.02,0,.07-.02.13-.02.2-.02h0Zm7.23.64c-.15,0-.29.06-.38.17l-2.38,2.71c-.19.2-.19.52.01.71.2.19.52.19.71-.01.01-.01.02-.02.03-.03l2.38-2.71c.18-.21.17-.52-.04-.71-.09-.08-.21-.13-.33-.13Zm-8.57.94l.26.97-3.88,2.71c-.23.15-.3.46-.16.69.15.23.46.3.69.16.01,0,.03-.02.04-.03l3.58-2.51,2.46,9.18-10.6-.92-1.11-4.15,8.72-6.1h0Zm10.43,2.71s-.09,0-.13.02l-3.61.97c-.27.07-.43.35-.35.61.07.27.35.43.61.35l3.61-.97c.27-.07.43-.34.36-.61-.06-.22-.26-.38-.49-.38h0Zm-15.15,1.84c-.1,0-.19.04-.27.09l-.66.46c-.23.15-.29.46-.14.69.15.23.46.29.69.14,0,0,.01,0,.02-.01l.66-.46c.23-.16.29-.47.13-.69-.1-.14-.27-.23-.44-.22h0Zm11.9,1.09c-.28.01-.49.25-.47.53.01.21.15.39.35.45l3.42,1.16c.26.09.55-.05.63-.31.09-.26-.05-.55-.31-.63l-3.42-1.16c-.06-.02-.13-.03-.2-.03h0Zm13.69.03h4v18h-4v-18Zm-27.57.28c-.1,0-.19.04-.27.09l-.79.56c-.22.16-.27.48-.11.7.16.22.46.27.68.12l.8-.56c.23-.16.29-.47.13-.69-.1-.14-.27-.23-.44-.22Zm-2.94.57l1.03,3.86-1.45.39-1.93.52-1.45.39-.25-.92s0,0,0-.01v-.03s-.53-1.96-.53-1.96c0,0,0-.01,0-.02l-.25-.93,4.83-1.29h0Zm-5.41,2.99l.27,1-.97.26-.26-1s.97-.26.96-.26Zm10.06,2l3.43.3s.02.05.05.13c.04.09.08.21.12.32.09.23.18.51.18.49.1.32.04.41,0,.45-.04.05-.14.08-.26.06,0,0-.02,0-.02,0l-2.56-.32c-.27-.03-.67-.38-.73-.62,0,0-.22-.82-.21-.82Zm-5.29.36l2.98,11.11-.97.26-2.98-11.11.97-.26h0Zm23.15.81h4v11h-4v-11Z"/>
</svg>