<?xml version="1.0" encoding="UTF-8"?>
<svg id="human-resources" xmlns="http://www.w3.org/2000/svg" viewBox="0 0 48 48">
  <defs>
    <style>
      .cls-1 {
        fill: none;
        stroke: #fff;
        stroke-linejoin: round;
        stroke-width: 2px;
      }
    </style>
  </defs>
  <path class="cls-1" d="m44,28v4l-2,2h-4l-2-2v-4c1.1,0,2-.9,2-2,0,0,0,2,6,2Zm-2,6v3h3l2,2v3h-13m4-8v3h-3l-2,2"/>
  <path class="cls-1" d="m36,28l-1-1v-1c0-2.76,2.24-5,5-5s5,2.24,5,5v1l-1,1"/>
  <polyline class="cls-1" points="38 37 40 39 42 37"/>
  <line class="cls-1" x1="40" y1="39" x2="40" y2="42"/>
  <path class="cls-1" d="m19,24v7l3,3h4l3-3v-7c-1.62.03-2.97-1.26-3-2.88,0-.04,0-.08,0-.12,0,0,0,3-7,3Z"/>
  <line class="cls-1" x1="27" y1="27" x2="25" y2="27"/>
  <line class="cls-1" x1="23" y1="27" x2="21" y2="27"/>
  <path class="cls-1" d="m26,29c0,1.1-.9,2-2,2s-2-.9-2-2m-5-5v-2c0-3.87,3.13-7,7-7s7,3.13,7,7v2m-12,0h-3v2c0,1.1.9,2,2,2h1m10-4h3v2c0,1.1-.9,2-2,2h-1m-3,6v3h6l2,2v8H14v-8l2-2h6v-3"/>
  <line class="cls-1" x1="30" y1="47" x2="30" y2="41"/>
  <line class="cls-1" x1="18" y1="47" x2="18" y2="41"/>
  <polyline class="cls-1" points="26 37 24 39 22 37"/>
  <line class="cls-1" x1="24" y1="39" x2="24" y2="47"/>
  <polyline class="cls-1" points="14 25 11 25 11 30 6 25 1 25 1 1 25 1 25 12"/>
  <polyline class="cls-1" points="6 14 10 18 20 8"/>
  <polyline class="cls-1" points="25 3 47 3 47 15 37 15 37 19 33 15 31 15"/>
  <line class="cls-1" x1="28" y1="7" x2="30" y2="7"/>
  <line class="cls-1" x1="32" y1="7" x2="44" y2="7"/>
  <line class="cls-1" x1="28" y1="11" x2="44" y2="11"/>
</svg>