<?xml version="1.0" encoding="utf-8"?>
<!-- Generator: Adobe Illustrator 27.6.1, SVG Export Plug-In . SVG Version: 6.00 Build 0)  -->
<svg version="1.1" id="Layer_1" xmlns="http://www.w3.org/2000/svg" xmlns:xlink="http://www.w3.org/1999/xlink" x="0px" y="0px"
	 viewBox="0 0 734 176" style="enable-background:new 0 0 734 176;" xml:space="preserve">
<style type="text/css">
	.st0{fill:#CAE6EC;}
	.st1{fill:#EAF4F1;}
</style>
<g>
	<path class="st0" d="M213,175c0-0.6-6.2-1-16.5-1s-16.5-0.4-16.5-1c0-0.5-1.3-1-2.8-1c-1.6,0-3.4-0.8-4.2-2s-2.6-2-4.2-2
		c-1.5,0-2.8-0.4-2.8-1c0-0.5-2-1-4.5-1c-4.1,0-4.5-0.2-4.5-2.5c0-1.7,3.7-2.5,11-2.5c6.7,0,11-0.4,11-1c0-0.5,0.7-1,1.6-1
		c2.1,0,3.9-2,4.8-5.3c0.4-1.8,1.3-2.7,2.6-2.7c1.1,0,2-0.7,2-1.5s-0.9-1.5-1.9-1.5c-1.1,0-2.3-0.9-2.6-2c-0.3-1.1-1.5-2-2.6-2
		c-1,0-1.9-0.4-1.9-1s-2.6-1-5.8-1c-4.6,0-6-0.4-7.2-2c-0.8-1.1-2.2-2-3.2-2c-1.3,0-1.8-0.8-1.8-3s-0.4-3-2-3s-2-0.7-2-3.6
		c0-3.5,1.8-6.4,4-6.4c0.7,0,2.5-1.3,4-3c2.6-2.8,3.2-3,10.4-3c4.4,0,7.6-0.4,7.6-1c0-0.5,2-1,4.5-1s4.5,0.5,4.5,1c0,0.6,1.8,1,4,1
		s4-0.4,4-1c0-0.5,2.3-1,5-1s5,0.5,5,1c0,0.6,1.8,1,4,1c3.6,0,4,0.3,4,2.5c0,1.4-0.5,2.5-1.1,2.5c-1.6,0-3.9,2.6-3.9,4.4
		c0,0.9-0.8,1.6-2,1.6c-1.1,0-2,0.5-2,1c0,0.6-0.9,1-2,1s-2,0.5-2,1c0,0.6-1.3,1-3,1c-1.6,0-3,0.5-3,1c0,0.6-2.2,1-5,1
		c-3.8,0-5,0.4-5,1.5c0,2,6.5,8.5,8.4,8.5c0.8,0,1.6,0.6,1.8,1.2c0.6,1.7,36,1.6,36.6-0.1c0.2-0.6,1.2-1.1,2.3-1.1
		c1,0,1.9-0.4,1.9-1c0-0.5,1.4-1,3-1c1.7,0,3-0.4,3-1c0-0.5,0.9-1,1.9-1c1.1,0,2.1-0.6,2.4-1.2c0.3-0.9,1.2-0.5,2.7,1.2
		s2.4,2.1,2.7,1.3c0.7-1.8,2.3-1.6,2.3,0.3c0,2.2,3.2,5.3,3.8,3.6c0.4-1.4,6.2-1.7,6.2-0.2c0,0.6-0.4,1-1,1c-0.5,0-1,1.1-1,2.5
		c0,2.3-0.3,2.5-5,2.5c-2.7,0-5,0.5-5,1c0,0.6-1.8,1-4,1s-4,0.5-4,1c0,0.6-0.9,1-2,1c-1.3,0-2,0.7-2,2s-0.7,2-2,2c-1.1,0-2,0.5-2,1
		c0,0.6-0.9,1-2,1s-2,0.5-2,1c0,0.6-1.8,1-3.9,1s-4.2,0.5-4.4,1.3c-0.4,1-0.6,1-0.6,0c-0.1-1.5-4.1-1.8-4.1-0.3c0,0.6-1.1,1-2.5,1
		c-2.9,0-7.5,4-7.5,6.5c0,0.8,0.7,1.5,1.6,1.5c1.5,0,4.4,2.3,4.4,3.4c0,0.3-1.8,0.6-4,0.6S213,175.6,213,175z"/>
	<path class="st0" d="M125,171c0-0.6-2.7-1-6-1s-6-0.4-6-1s-3.2-1-7.5-1s-7.5-0.4-7.5-1s-7.7-1-21-1c-14,0-21-0.8-21-2.5
		s4.8-2.5,14.5-2.5c9,0,14.5-0.4,14.5-1c0-0.5,1.8-1,4-1s4,0.5,4,1c0,0.6,1.8,1,4,1s4-0.4,4-1c0-0.5,2-1,4.5-1s4.5-0.4,4.5-1
		s2.7-1,6-1s6-0.4,6-1s3.3-1,8-1s8,0.4,8,1s0.9,1,2,1s2,0.5,2,1c0,0.6,0.9,1,2,1s2,0.5,2,1c0,0.6,0.5,1,1.1,1c2,0,4,3,3.4,5
		c-0.5,1.7-1.5,2-6.1,2c-3,0-5.4,0.5-5.4,1c0,0.6-2.7,1-6,1s-6,0.4-6,1s-0.4,1-1,1C125.5,172,125,171.6,125,171z"/>
	<path class="st0" d="M342,128c0-0.5-1.3-1-3-1c-2,0-3-0.5-3-1.5c0-2-4.5-6.5-6.5-6.5c-0.8,0-1.5-0.9-1.5-2c0-1.3-0.7-2-2-2
		c-1.1,0-2,0.5-2,1c0,0.6-0.9,1-2,1s-2,0.5-2,1c0,0.6-2,1-4.5,1s-4.5,0.5-4.5,1c0,1.8-5.5,1.1-7-1c-1-1.4-2.6-2-5.2-2
		c-3.1,0-3.8,0.4-3.8,2c0,1.1-0.4,2-1,2c-0.5,0-1,0.7-1,1.6c0,3.4-2.6,4.4-11.4,4.4c-5.1,0-8.6-0.4-8.6-1c0-0.5-0.7-1-1.5-1
		s-1.5,0.5-1.5,1c0,0.6-0.9,1-2,1s-2-0.4-2-1c0-0.5-1.8-1-4-1s-4-0.4-4-1c0-0.5-2.2-1-5-1s-5-0.4-5-1c0-1.5-2.9-1.2-4.6,0.5
		c-1.3,1.3-1.8,1.2-4-1c-1.8-1.8-2.4-3.5-2.4-7c0-3,1.3-4.5,4-4.5c2.2,0,4-0.4,4-1c0-0.5,1.8-1,4-1s4,0.5,4,1c0,0.6,0.9,1,2,1
		s2,0.5,2,1c0,0.6,1.4,1,3,1c2.6,0,3,0.4,3,2.6c0,2.9,3.1,6.7,3.8,4.6c0.2-0.6,1-1.2,1.8-1.2s1.4-0.4,1.4-1c0-0.5-0.4-1-1-1
		c-0.5,0-1-1.8-1-4c0-3.3,0.3-4,2-4c1.3,0,2-0.7,2-2c0-1.1,0.5-2,1-2c0.6,0,1-1.1,1-2.5c0-2.3,0.3-2.5,5-2.5c3.3,0,5-1.9,5-5.8
		c0-4.6,0.4-6,2-7.2c1.4-1,2-2.6,2-5.2c0-3.1,0.4-3.8,2-3.8c1.1,0,2-0.4,2-1c0-0.5,2.3-1,5-1c3.8,0,5-0.4,5-1.5
		c0-1.5,6.2-8.5,7.5-8.5c1.2,0,3.5-2.9,3.5-4.4c0-1.1,2-1.6,9-2.2c5-0.3,9-1,9-1.5s1.8-0.9,4-0.9s4,0.5,4,1c0,0.6,3.7,1,9,1
		c7.1,0,9.2,0.3,9.6,1.5c0.4,0.9,1.9,1.5,3.5,1.5s2.9,0.5,2.9,1c0,0.6,0.8,1,1.8,1s2.4,0.9,3.2,2c0.8,1.1,2.2,2,3.2,2s1.8,0.5,1.8,1
		c0,0.6,1.8,1,4,1s4-0.4,4-1c0-0.5,1.4-1,3-1c1.7,0,3-0.4,3-1c0-0.5,2.5-1,5.5-1s5.5-0.4,5.5-1c0-0.5,1.4-1,3-1c2.9,0,3-0.2,3-4.5
		s0-4.5-4-4.5c-2.2,0-4-0.4-4-1c0-0.5-2.5-1-5.5-1s-5.5-0.4-5.5-1c0-0.5-0.9-1-2-1s-2-0.4-2-1c0-0.5-0.9-1-2-1s-2-0.4-2-1
		c0-0.5-2.2-1-5-1c-4.7,0-5-0.2-5-2.5c0-2,0.5-2.5,2.5-2.5c1.4,0,2.5-0.4,2.5-1c0-0.5,1.2-1,2.6-1s3.2-0.6,4-1.4
		c1.6-1.7,1.9-4.6,0.4-4.6c-0.5,0-1-1.3-1-3c0-2.8,0.2-3,3.9-3c2.2,0,4.2,0.6,4.5,1.3c0.5,1,0.7,1,1.2,0c0.7-1.6,11.4-1.8,11.4-0.3
		c0,0.6,0.9,1,1.9,1c1.1,0,2.2,0.6,2.5,1.3c0.5,1,0.7,1,1.2,0c0.7-1.6,20.4-1.8,20.4-0.3c0,0.6,1.8,1,4,1s4,0.5,4,1
		c0,0.6,1.1,1,2.5,1s2.5,0.5,2.5,1c0,1.5,11.7,1.3,12.3-0.2c0.3-0.7,0.6,0.4,0.6,2.5c0.1,3.5-0.1,3.7-2.9,3.7c-1.6,0-3,0.5-3,1
		c0,0.6-1.1,1-2.5,1s-2.5,0.5-2.5,1c0,0.6-1.8,1-4,1c-3.3,0-4,0.3-4,2c0,1.1,0.5,2,1,2c0.6,0,1,1.4,1,3c0,2.7,0.3,3,3,3
		c2.3,0,3,0.4,3,2c0,1.1,0.7,2,1.5,2c1,0,1.5,1.1,1.5,3.5s-0.5,3.5-1.5,3.5c-0.8,0-1.5,0.5-1.5,1c0,0.6-0.7,1-1.6,1s-2.9,1.4-4.4,3
		c-2.5,2.6-3.5,3-8.4,3s-5.6,0.2-5.6,2c0,1.2,0.7,2,1.6,2c1.8,0,4.4,2.3,4.4,4c0,2,2.8,4,5.4,4c1.6,0,2.6,0.6,2.6,1.5
		c0,0.8-0.7,1.5-1.5,1.5s-1.5,0.5-1.5,1c0,0.6-0.9,1-2,1s-2,0.5-2,1c0,1.5-5.7,1.2-6.4-0.2c-0.5-1-0.7-1-1.2,0
		c-0.3,0.6-1.2,1.2-2.1,1.2c-0.8,0-2.8,1.4-4.3,3c-1.5,1.7-3.5,3-4.4,3s-1.6,0.5-1.6,1c0,0.6-1.2,1-2.6,1s-3.2,0.6-4,1.4
		c-1.6,1.7-1.9,5.6-0.4,5.6c0.6,0,1,0.5,1,1c0,0.6-1.3,1-2.9,1c-2.1,0-3.2-0.6-3.6-2c-0.3-1.1-1.4-2-2.3-2c-1,0-2.4,0.9-3.2,2
		c-0.8,1.1-2.2,2-3.2,2s-1.8,0.5-1.8,1c0,0.6-1.3,1-2.8,1c-1.6,0-3.4,0.8-4.2,2c-0.8,1.1-2.2,2-3.2,2s-1.8,0.5-1.8,1
		c0,0.6-0.9,1-2,1s-2,0.5-2,1c0,0.6-1.3,1-2.9,1s-3.2,0.6-3.5,1.3c-0.5,1-0.7,1-1.2,0c-0.7-1.5-7.4-1.8-7.4-0.3c0,0.6-1.1,1-2.5,1
		c-2.9,0-7.5,4-7.5,6.5c0,0.8-0.4,1.5-1,1.5C342.5,129,342,128.6,342,128L342,128L342,128z M364,96c0-0.5,0.9-1,2-1c1.6,0,2-0.7,2-3
		c0-1.6,0.5-3,1-3c0.6,0,1-1.2,1-2.6c0-1.5,1-3.5,2.2-4.5c1.1-1.1,1.8-2.2,1.5-2.6c-0.4-0.3-1.5,0.4-2.6,1.5
		c-1.6,2-2.9,2.2-10.7,2.2s-9.1-0.3-10.4-2c-0.8-1.1-2.2-2-3.2-2s-1.8-0.4-1.8-1c0-0.5-1.3-1-3-1c-1.6,0-3,0.5-3,1c0,0.6-0.9,1-2,1
		s-2,0.5-2,1c0,0.6-1.8,1-4,1s-4,0.5-4,1c0,0.6-1.3,1-3,1c-1.6,0-3,0.5-3,1c0,0.6-1.1,1-2.5,1c-2.5,0-3.1,1.3-1.9,4.4
		c0.5,1.3,2.4,1.6,10.5,1.6c5.9,0,9.9,0.4,9.9,1c0,0.6,1.8,1,4,1s4,0.5,4,1c0,0.6,2.7,1,6,1s6,0.4,6,1c0,0.6,1.6,1,3.5,1
		S364,96.6,364,96z"/>
	<path class="st0" d="M480,97c0-0.5-2-1-4.5-1c-4.2,0-4.5-0.2-4.5-2.6c0-1.4-0.6-3.2-1.4-4c-1.7-1.6-4.6-1.9-4.6-0.4
		c0,0.6-4.3,1-11,1s-11-0.4-11-1c0-0.5-1.1-1-2.5-1c-2,0-2.5-0.5-2.5-2.5c0-1.8,0.5-2.5,2-2.5c1.1,0,2-0.4,2-1c0-0.5,0.9-1,2-1
		s2-0.4,2-1c0-0.5,1.4-1,3-1c1.7,0,3-0.4,3-1c0-0.5,2.3-1,5-1s5,0.5,5,1c0,0.6,3.3,1,8,1s8,0.4,8,1s0.7,1,1.5,1s1.5-0.4,1.5-1
		c0-0.5,0.9-1,2-1s2-0.4,2-1s4-1,10-1s10,0.4,10,1s1.8,1,4,1s4-0.4,4-1c0-0.5,1.6-1,3.5-1c3.1,0,3.5-0.3,3.5-2.6
		c0-2.8,2-5.4,4.2-5.4c0.8,0,2-0.9,2.8-2c1.3-1.8,2.6-2,11.2-2c5.9,0,9.8,0.4,9.8,1s1.4,1,3,1c1.7,0,3,0.5,3,1c0,0.6,1.4,1,3,1
		c1.7,0,3,0.5,3,1c0,0.6,2.8,1,6.5,1s6.5-0.4,6.5-1c0-0.5,0.9-1,2-1s2-0.4,2-1c0-0.5,0.9-1,2-1s2-0.4,2-1s4.5-1,11.5-1
		s11.5-0.4,11.5-1s2.7-1,6-1s6-0.4,6-1c0-0.5,0.9-1,2-1s2-0.4,2-0.9s1-1.2,2.3-1.4c1.2-0.2,0.3-0.5-2-0.6c-2.4,0-4.3-0.5-4.3-1.1
		c0-0.5-1.3-1-3-1c-1.6,0-3,0.5-3,1c0,0.6-6.2,1-16.5,1S577,57.6,577,57c0-0.5-1.8-1-4-1s-4,0.5-4,1c0,0.6-1.1,1-2.5,1
		s-2.5,0.5-2.5,1c0,0.6-0.9,1-2,1s-2,0.5-2,1c0,0.6-4,1-10,1s-10-0.4-10-1c0-0.5-0.9-1-2-1s-2,0.5-2,1c0,0.6-2.1,1-4.6,1
		c-3.8,0-5.1-0.5-7.4-3c-2.2-2.4-3.6-3-6.9-3c-2.3,0-4.1-0.4-4.1-1c0-0.5-1.8-1-4-1c-2.9,0-4-0.4-4-1.5c0-2-6.5-8.5-8.5-8.5
		c-0.8,0-1.5,0.5-1.5,1c0,0.6-2.6,1-5.8,1c-4.6,0-6-0.4-7.2-2c-0.8-1.1-2.2-2-3.2-2s-1.8-0.4-1.8-1c0-0.5-2-1-4.5-1
		c-3,0-4.5-1.2-4.5-3.7c0-3,0.3-3.5,1.1-2.3c0.8,1.1,1.2,1.2,1.6,0.3c0.2-0.7,1.1-1.3,2-1.3c1.8,0,4.3-2.4,4.3-4.2
		c0-0.8-0.9-2-2-2.8c-1.5-1.1-2-2.6-2-6.3c0-5,1.6-7.7,4.4-7.7c0.9,0,1.6-0.4,1.6-1c0-0.5,0.7-1,1.5-1s1.5,0.9,1.5,2s0.5,2,1,2
		c0.6,0,1,0.9,1,2c0,1.7,0.7,2,3.9,2c2.2,0,4.1,0.5,4.4,1.3s1.1,0.5,2.4-1c1.1-1.3,2.7-2.3,3.4-2.3c0.8,0,2.1-0.9,2.9-2
		c1.7-2.3,5.5-2.6,7.6-0.6c1.6,1.7,1.9,4.6,0.4,4.6c-0.5,0-1,1.1-1,2.5c0,2.1,0.5,2.5,3,2.5c3.5,0,3.8,1,1,3c-1.1,0.8-2,2.2-2,3.2
		c0,1.4,0.8,1.8,3.8,1.8c2.6,0,4.2,0.6,5.2,2c1.5,2.1,4,2.7,4,1c0-0.5,1.8-1,4-1c3.3,0,4-0.3,4-2c0-1.1,0.5-2,1-2c0.6,0,1-0.8,1-1.8
		s0.9-2.4,2-3.2c1.1-0.8,2-2,2-2.7s0.4-1.3,0.8-1.3c1.4,0,5.2,3.6,5.2,4.9c0,1.7,4.6,6.1,6.5,6.1c0.8,0,1.5-0.4,1.5-1
		c0-0.5,1.4-1,3-1c1.7,0,3,0.5,3,1c0,0.6,2.3,1,5,1c6.9,0,10,3,10,9.5c0,3,3.3,4.5,10,4.5c6,0,10,0.4,10,1s2.7,1,6,1s6-0.4,6-1
		c0-0.5,1.6-1,3.5-1s3.5-0.4,3.5-1s3.7-1,9-1s9-0.4,9-1c0-0.5,1.8-1,4-1s4-0.4,4-1c0-0.5,0.9-1,2-1s2,0.5,2,1c0,0.6,0.9,1,2,1
		s2,0.5,2,1c0,0.6,1.1,1,2.5,1s2.5,0.5,2.5,1c0,0.6,1.8,1,4,1s4-0.4,4-1c0-0.5,1.4-1,3-1c1.7,0,3-0.4,3-1c0-0.5,0.9-1,1.9-1
		c1.1,0,2.2-0.6,2.5-1.2c0.5-1,0.7-1,1.2,0c0.3,0.6,2.3,1.2,4.5,1.2s3.9,0.5,3.9,1c0,0.6,0.7,1,1.6,1c0.8,0,2.2,0.6,3,1.4
		c1.6,1.7,1.9,4.6,0.4,4.6c-0.5,0-1,1.8-1,4c0,3,0.4,4,1.6,4c0.8,0,3,1.6,4.8,3.5c3,3.2,3.8,3.5,9,3.5c4.9,0,5.6,0.2,5.6,2
		c0,1.3-0.7,2-2,2c-1.1,0-2,0.5-2,1c0,0.6-0.9,1-2,1s-2,0.5-2,1c0,0.6-0.9,1-2,1s-2,0.5-2,1c0,0.6-0.7,1-1.5,1s-1.5,0.5-1.5,1
		c0,0.6-1.8,1-4,1s-4-0.4-4-1c0-0.5-0.9-1-2-1s-2,0.5-2,1c0,1.5-9.7,1.2-10.4-0.2c-0.5-1-0.7-1-1.2,0c-0.4,0.8-3.1,1.2-8.5,1.2
		c-4.6,0-7.9,0.4-7.9,1s-0.7,1-1.5,1s-1.5,0.5-1.5,1c0,0.6-1.8,1-4,1s-4,0.5-4,1c0,0.6-2.2,1-5,1s-5,0.5-5,1c0,0.6-3,1-7,1
		s-7-0.4-7-1c0-0.5-0.9-1-2-1s-2-0.4-2-1c0-0.5-0.9-1-2-1s-2-0.4-2-1s-2.8-1-6.5-1s-6.5,0.4-6.5,1s-2.7,1-6,1s-6,0.4-6,1s-1.3,1-3,1
		c-1.6,0-3,0.5-3,1c0,0.6-1.8,1-4,1s-4,0.5-4,1c0,0.6-1.6,1-3.5,1s-3.5-0.4-3.5-1c0-0.5-1.3-1-3-1c-1.6,0-3-0.4-3-1
		c0-0.5-2.5-1-5.6-1c-5.4,0-8.4,1.4-8.4,4c0,2-2.8,4-5.4,4c-1.4,0-2.6,0.5-2.6,1c0,0.6-0.9,1-2,1s-2,0.5-2,1c0,0.6-2.8,1-6.5,1
		s-6.5,0.4-6.5,1s-0.9,1-2,1s-2-0.4-2-1c0-0.5-1.3-1-3-1c-1.6,0-3,0.5-3,1c0,0.6-1.3,1-3,1c-1.6,0-3,0.5-3,1c0,0.6-3.7,1-9,1
		S480,97.6,480,97L480,97L480,97z"/>
	<path class="st0" d="M708.2,62.5c-0.7-0.8-2.2-1.5-3.2-1.5c-1.1,0-2-0.4-2-1c0-0.5,0.5-1,1-1c1.5,0,1.3-9.7-0.2-10.2
		c-0.9-0.3-0.8-0.9,0.4-2.1c1.1-1.2,3.4-1.7,7.2-1.7c3.1,0,5.6-0.4,5.6-1s3.2-1,7.5-1c5,0,7.5,1,7.5,3c0,1.7,0.5,3,1,3
		c0.6,0,1,0.9,1,2c0,1.4-0.7,2-2.3,2c-1.2,0-2.9,0.9-3.7,2s-2.1,2-3,2s-2.2,0.9-3,2c-1.1,1.5-2.6,2-6.2,2s-4.8,0.4-4.8,1.5
		C711,64.4,709.9,64.4,708.2,62.5z"/>
	<path class="st0" d="M325,43c0-0.5-1.8-1-4-1s-4-0.4-4-1c0-0.5-0.9-1-2-1s-2-0.4-2-1c0-0.5-1.1-1-2.5-1s-2.5-0.4-2.5-1
		c0-0.5-1.3-1-3-1c-1.6,0-3,0.5-3,1c0,0.6-2.2,1-5,1s-5,0.5-5,1c0,0.6-3.3,1-8,1s-8-0.4-8-1s-5.8-1-15.3-1c-14.1,0-15.4-0.2-16.7-2
		c-0.8-1.1-2.2-2-3.2-2s-1.8-0.4-1.8-1c0-0.5-0.9-1-2-1s-2-0.4-2-1c0-0.5-0.9-1-1.9-1c-1.1,0-2.2-0.6-2.4-1.2
		c-0.3-0.7-0.6-0.3-0.6,1c-0.1,1.3-0.7,2.2-1.6,2.2c-2,0-8.5,6.5-8.5,8.5c0,1.1-1,1.5-3.6,1.5s-4.3-0.7-6.4-3c-3.5-3.7-4.5-3.7-8,0
		c-2.4,2.6-3.5,3-8,3c-7.1,0-9-2.2-9-10.1c0-3.8,0.5-6.3,1.5-7.3c0.8-0.8,1.5-2.8,1.5-4.5s0.5-3.1,1-3.1c0.6,0,1-0.7,1-1.5
		c0-0.9,0.9-1.5,2.3-1.5c1.2,0,2.9-0.9,3.7-2c0.8-1.1,2.2-2,3.2-2s1.8-0.4,1.8-1c0-0.5-0.7-1-1.6-1c-2.2,0-5.3-3.2-3.6-3.8
		C196.4,4,197,3,197,1.9c0-1.8,1-1.9,22.5-1.9C233.8,0,242,0.4,242,1s0.7,1,1.6,1c0.8,0,2.2,0.6,3,1.4c1.6,1.7,1.9,6.6,0.4,6.6
		c-0.5,0-1,2.2-1,4.9c0,3.3,1.8,5.1,5.4,5.5c5.8,0.8,12.6-0.1,12.6-1.5c0-0.5,2.7-0.9,6.1-0.9c5.9,0,8.9,1.3,8.9,3.9
		c0,1.6,11.7,1.4,12.4-0.1c0.5-1,0.7-1,1.2,0c0.7,1.5,12.4,1.7,12.4,0.2c0-0.5,2.5-1,5.5-1s5.5,0.5,5.5,1c0,0.6,1.4,1,3,1
		c1.7,0,3,0.5,3,1c0,1.4,3.7,1.2,4.4-0.2c0.5-1,0.7-1,1.2,0c0.7,1.4,10.4,1.7,10.4,0.2c0-0.5,0.9-1,2-1s2,0.5,2,1c0,0.6,0.7,1,1.6,1
		c2.2,0,5.3,3.2,3.6,3.8c-1.8,0.6-1.5,5.1,0.5,7c1.6,1.6,1.3,1.7-3.5,2c-2.9,0.2-5.2,0.7-5.2,1.3c0,0.5-0.8,0.9-1.8,0.9
		s-2.4,0.9-3.2,2c-1,1.4-2.6,2-5.2,2C326.7,44,325,43.6,325,43z"/>
	<path class="st0" d="M87,20c0-0.5-0.9-1-2-1s-2-0.4-2-1c0-0.5-0.8-1-1.8-1s-2.4-0.9-3.2-2c-1.5-2.1-5-2.8-5-1c0,0.6-2.7,1-6,1
		c-3.3,0-6-0.4-6-1c0-0.5-1.6-1-3.5-1S54,12.6,54,12c0-0.5-0.9-1-2-1c-1.2,0-2-0.7-2-1.6c0-2-2.4-4.4-4.4-4.4c-1,0-1.6-0.9-1.6-2.5
		C44,0.8,64.2,0,104.6,0c63,0,63.4,0,63.4,4c0,2.1,6.9,8,9.5,8c1.4,0,2.5,0.5,2.5,1c0,0.6,0.7,1,1.5,1s1.5,0.7,1.5,1.5
		s-0.9,1.5-2,1.5s-2,0.5-2,1c0,0.6-3,1-7,1s-7-0.4-7-1s-3.3-1-7.9-1c-5.4,0-8.1-0.4-8.4-1.2c-0.4-1-0.6-1-0.6,0
		C148,17.3,132,17.6,132,16c0-0.6-2.9-1-6.6-1c-6,0-6.8-0.3-9.4-3c-3.3-3.5-8-4.2-8-1.1c0,1.1-0.7,2.6-1.5,3.5
		c-0.8,0.8-1.5,2.2-1.5,3c0,0.9-0.8,1.6-2,1.6c-1.1,0-2,0.5-2,1c0,0.6-3,1-7,1S87,20.6,87,20z"/>
	<path class="st1" d="M20.5,170c-0.3-1.1-1.3-2-2.1-2c-1.8,0-4.4-2.4-4.4-4c0-1.9-4.8-6-7-6c-1.2,0-3.2-1.1-4.5-2.5
		c-1.7-1.6-2.5-24.9-2.5-70S1,17.9,3,18c1.7,0,3-0.4,3-1c0-0.5,0.9-1,2-1s2-0.4,2-1c0-0.5,1.4-1,3-1c1.7,0,3-0.4,3-1
		c0-0.5,2.3-1,5.1-1c4.7,0,5.3-0.3,9.9-5c3.3-3.4,5.7-5,7.4-5C39.8,2,41,1.6,41,1c0-0.5,1.4-1,3-1c1.7,0,3,0.5,3,1
		c0,0.6,0.7,1,1.6,1c2,0,4.4,2.4,4.4,4.4C53,7.3,53.8,8,55,8c1.1,0,2,0.5,2,1c0,0.6,1.5,1,3.4,1s3.7,0.6,3.9,1.3
		c0.4,0.9,0.8,0.8,1.6-0.3c1-1.3,1.2-1.3,2.2,0c0.8,1.1,1.2,1.2,1.6,0.3C70,10.5,72,10,74.9,10c3.5,0,5,0.5,6.1,2
		c0.8,1.1,2.2,2,3.2,2s1.8,0.5,1.8,1c0,0.6,0.9,1,2,1s2,0.5,2,1c0,0.6,1.8,1,4,1s4-0.4,4-1c0-0.5,0.9-1,2-1c1.2,0,2-0.7,2-1.6
		c0-0.8,0.7-2.2,1.5-3c0.8-0.9,1.5-2.9,1.5-4.5c0-2.6,0.3-2.9,3-2.9c1.7,0,3,0.5,3,1c0,0.6,1.2,1,2.6,1c1.6,0,3.7,1.2,5.4,3
		c2.6,2.7,3.4,3,9.4,3c3.7,0,6.6,0.4,6.6,1s2.3,1,5,1c2.7,0,5-0.4,5-1c0-0.5,1.6-1,3.5-1s3.5,0.5,3.5,1c0,0.6,3.3,1,8,1s8,0.4,8,1
		s1.8,1,4,1s4-0.4,4-1s3.5-1,8.5-1s8.5,0.4,8.5,1s0.9,1,2,1s2,0.5,2,1c0,0.6-0.7,1-1.6,1c-2.4,0-4.4,2.5-4.4,5.5
		c0,1.5-0.7,3.3-1.5,4.1c-3.4,3.5-0.3,11.4,4.5,11.4c1.2,0,3.5-1.3,5-3c1.5-1.6,3.5-3,4.4-3s1.6-0.4,1.6-1c0-2.2,3.4-0.8,7,3
		c4.2,4.4,5,4.8,5,2.5c0-2,6.5-8.5,8.5-8.5c0.8,0,1.5-0.7,1.5-1.6c0-0.8,0.6-2.2,1.4-3c1.6-1.6,7.6-1.9,7.6-0.4c0,0.6-0.4,1-1,1
		c-0.5,0-1,0.5-1,1c0,0.6,0.9,1,2,1s2,0.5,2,1c0,0.6,0.9,1,2,1s2,0.5,2,1c0,0.6,0.8,1,1.8,1s2.4,0.9,3.2,2c1.2,1.7,2.6,2,8.2,2
		c3.9,0,6.8-0.4,6.8-1c0-0.5,1.4-1,3-1c1.7,0,3,0.5,3,1c0,0.6,2.5,1,5.5,1s5.5,0.5,5.5,1c0,0.6,2.3,1,5,1s5-0.4,5-1c0-0.5,0.9-1,2-1
		s2-0.4,2-1c0-1.4,3.7-1.2,4.4,0.3c0.5,1,0.7,1,1.2,0c0.7-1.6,12.4-1.8,12.4-0.3c0,0.6,1.1,1,2.5,1s2.5,0.5,2.5,1c0,0.6,0.9,1,2,1
		s2,0.5,2,1c0,0.6,1.8,1,3.9,1s4.1,0.5,4.4,1.3s1.1,0.5,2.4-1.1c1.1-1.2,2.7-2.2,3.4-2.2c0.8,0,2.1-0.9,2.9-2c1.5-2.1,7-2.8,7-1
		c0,0.6,0.9,1,2,1s2,0.5,2,1c0,0.6,2,1,4.5,1s4.5,0.5,4.5,1c0,0.6,1.8,1,4,1s4,0.5,4,1c0,0.6,1.4,1,3,1c1.7,0,3,0.5,3,1
		c0,0.6,2.3,1,5,1s5,0.5,5,1c0,0.6,0.9,1,2,1s2,0.5,2,1c0,0.6,0.9,1,2,1s2,0.5,2,1c0,0.6,2.5,1,5.5,1s5.5,0.5,5.5,1c0,0.6,1.8,1,4,1
		c2.7,0,4,1.6,4,4.9c0,4.1,0.4,5.1,2,5.6c2.6,0.8,2.6,2.5,0,2.5c-1.1,0-2,0.5-2,1c0,0.6-1.3,1-3,1c-1.6,0-3,0.5-3,1
		c0,0.6-2.5,1-5.5,1s-5.5,0.5-5.5,1c0,0.6-1.2,1-2.6,1c-1.5,0-3.5,1-4.6,2.2c-1.6,1.9-2.1,2-2.9,0.8c-0.8-1.1-1.2-1.2-1.6-0.2
		c-0.8,1.9-5.7,1.4-7.3-0.8c-0.8-1.1-2.1-2-3-2s-2.2-0.9-3-2s-2.2-2-3.2-2s-1.8-0.4-1.8-1c0-0.5-1.3-1-2.9-1s-3.1-0.6-3.5-1.5
		c-0.4-1.2-2.5-1.5-9.5-1.5c-6.2,0-9.1-0.4-9.4-1.2c-0.4-1-0.8-1-1.4-0.2c-0.4,0.6-4.7,1.5-9.5,1.9c-6.8,0.5-8.8,1-8.8,2.2
		c0,1.4-2.3,4.3-3.5,4.3c-1.3,0-7.5,7-7.5,8.5c0,1.1-1.2,1.5-5,1.5c-2.7,0-5,0.5-5,1c0,0.6-0.9,1-2,1c-1.6,0-2,0.7-2,3.8
		c0,2.6-0.6,4.2-2,5.2c-3.3,2.4-1.8,9,2,9c1.2,0,4,2.4,4,3.4c0,0.3-4,0.6-9,0.6c-8.9,0-9,0-9,2.5c0,1.4-0.4,2.5-1,2.5
		c-0.5,0-1,0.9-1,2c0,1.3-0.7,2-2,2c-1.1,0-2,0.3-2,0.6c0,0.3,2.2,2.7,5,5.4c2.7,2.7,5,5.1,5,5.4c0,0.3-1.8,0.6-4,0.6s-4-0.4-4-1
		c0-0.5-0.7-1-1.5-1s-1.5,0.5-1.5,1c0,1.5-7,1.2-8.6-0.4c-0.8-0.8-1.4-2.6-1.4-4c0-2.2-0.4-2.6-3-2.6c-1.6,0-3-0.4-3-1
		c0-0.5-0.9-1-1.9-1c-1.1,0-2.2-0.6-2.5-1.2c-0.5-1-0.7-1-1.2,0c-0.3,0.6-2.3,1.2-4.5,1.2c-3.1,0-3.9,0.4-3.9,1.8c0,1,0.9,2.4,2,3.2
		c4.3,3.1,1.3,7-5.4,7c-2.5,0-4.6-0.4-4.6-1c0-0.5-2.5-1-5.5-1s-5.5-0.4-5.5-1c0-0.5-0.9-1-2-1s-2-0.4-2-1c0-0.5-1.8-1-4-1
		s-4-0.4-4-1c0-0.5-0.9-1-2-1s-2,0.5-2,1c0,0.6-3,1-7,1s-7-0.4-7-1c0-0.5-0.7-1-1.5-1s-1.5,0.5-1.5,1c0,0.6-3.2,1-7.6,1
		c-7.2,0-7.8,0.2-10.4,3c-1.5,1.7-3.3,3-4,3c-1.2,0-4,2.4-4,3.4c0,0.3,0.9,0.6,2,0.6c1.6,0,2,0.7,2,3c0,2.3,0.5,3,1.8,3
		c1,0,2.4,0.9,3.2,2c1.2,1.6,2.6,2,7.2,2c3.2,0,5.8,0.4,5.8,1c0,0.6,0.9,1,1.9,1c1.1,0,2.3,0.9,2.6,2c0.3,1.1,1.5,2,2.6,2
		c1,0,1.9,0.6,1.9,1.4s0.6,1.7,1.3,2c1,0.5,1,0.7,0,1.2c-0.7,0.3-1.3,1.4-1.3,2.5c0,1.2-0.7,1.9-2,1.9s-2.2,0.9-2.6,2.7
		c-0.9,3.3-2.7,5.3-4.8,5.3c-0.9,0-1.6,0.5-1.6,1c0,0.6-4.3,1-11,1s-11,0.4-11,1c0,0.6-1.3,1-2.9,1s-3.2,0.6-3.4,1.3
		c-0.4,0.9-0.8,0.8-1.6-0.3c-1-1.3-1.2-1.3-2,0c-0.8,1.2-1.3,1.1-2.9-0.8c-1.1-1.2-2.4-2.2-3.1-2.2c-0.6,0-1.1-0.4-1.1-1
		c0-0.5-0.9-1-2-1s-2-0.4-2-1c0-0.5-0.9-1-2-1s-2-0.4-2-1c0-0.5-2.2-1-5-1s-5,0.5-5,1c0,0.6-2.7,1-6,1s-6,0.4-6,1c0,0.6-2,1-4.5,1
		s-4.5,0.5-4.5,1c0,1.5-13.7,1.3-14.4-0.2c-0.5-1-0.7-1-1.2,0c-0.4,0.9-4.4,1.2-15,1.2c-8.9,0-14.4,0.4-14.4,1c0,0.6-1.3,1-3,1
		c-1.6,0-3,0.5-3,1c0,0.6-2.2,1-5,1s-5,0.5-5,1c0,0.6-2.2,1-5,1s-5,0.5-5,1c0,0.6-2.6,1-5.9,1C22,172,21,171.7,20.5,170L20.5,170
		L20.5,170z"/>
	<path class="st1" d="M359,101c0-0.5-1.1-1-2.5-1s-2.5-0.4-2.5-1s-2.7-1-6-1s-6-0.4-6-1c0-0.5-1.8-1-4-1s-4-0.4-4-1c0-0.5-1.8-1-4-1
		s-4,0.5-4,1c0,0.6-1.3,1-3,1c-1.6,0-3-0.4-3-1c0-0.5-1.3-1-2.9-1c-2.1,0-3.2-0.6-3.6-2c-0.3-1.1-1.1-2-1.6-2c-1.4,0-1.1-5,0.5-6.6
		c0.8-0.8,2.4-1.4,3.5-1.4c1.2,0,2.1-0.4,2.1-1c0-0.5,1.4-1,3-1c1.7,0,3-0.4,3-1c0-0.5,1.8-1,4-1s4-0.4,4-1c0-0.5,0.9-1,2-1
		s2-0.4,2-1s2.7-1,6-1s6,0.4,6,1s0.8,1,1.8,1s2.4,0.9,3.2,2c1.2,1.6,2.6,2,7.5,2s6.3-0.4,7.5-2c1.7-2.4,7.4-2.7,9.6-0.6
		c1.9,2,1.8,6.6-0.2,6.6c-2.3,0-4.4,2.5-4.4,5.4c0,1.4-0.4,2.6-1,2.6c-0.5,0-1,1.4-1,3c0,2.2-0.5,3-1.8,3c-1,0-2.4,0.9-3.2,2
		C364.5,102.1,359,102.8,359,101z"/>
	<path class="st1" d="M425.3,86.5c-0.7-0.8-1.3-1.9-1.3-2.5c0-1.5-2.5-4-4-4c-1.8,0-4-2.7-4-5c0-3.5,2.4-5,8-5c4.5,0,5.6-0.4,8-3
		c1.5-1.6,3.5-3,4.4-3s1.6-0.4,1.6-0.9s0.8-1.2,1.8-1.4c1.6-0.4,1.6-0.5,0-0.6c-1.1-0.1-1.8-0.9-1.8-2.1c0-1.6-0.7-2-3-2
		c-2.7,0-3-0.3-3-3c0-1.6-0.4-3-1-3c-1.6,0-1.2-8.9,0.4-10.6c1.8-1.7,4.2-1.8,5-0.1c0.5,1,0.7,0.9,1.2,0c0.3-0.7,1.7-1.3,3-1.3
		s2.4-0.4,2.4-1c0-0.5,1.3-1,2.8-1c1.6,0,3.4-0.8,4.2-2c1.5-2.1,7-2.8,7-1c0,0.6,0.9,1,2,1s2-0.4,2-1c0-0.5,1.7-1,3.8-1
		c2.6,0,4.2,0.6,5.2,2c1.1,1.5,2.6,2,5.7,2c2.4,0,4.3,0.5,4.3,1c0,0.6,0.8,1,1.8,1s2.4,0.9,3.2,2c1.5,2.1,7,2.8,7,1c0-0.5,1.8-1,4-1
		s4-0.4,4-1c0-0.5,0.5-1,1-1c0.6,0,1,0.7,1,1.6s1.4,2.9,3,4.4c1.7,1.5,3,3.5,3,4.4c0,1.2,1,1.6,4,1.6c2.2,0,4,0.5,4,1
		c0,0.6,0.9,1,2,1s2-0.4,2-1c0-2,2.3-0.9,6,3c3.6,3.8,7,5.2,7,3c0-0.5,2.3-1,5-1s5,0.5,5,1c0,0.6,3,1,7,1s7-0.4,7-1c0-0.5,0.9-1,2-1
		s2-0.4,2-1c0-0.5,1.1-1,2.5-1s2.5-0.4,2.5-1s3-1,7-1s7,0.4,7,1c0,1.4,3.7,1.2,4.4-0.2c0.5-1,0.7-1,1.2,0c0.7,1.5,21.4,1.8,21.4,0.2
		c0-0.6,2.7-1,6-1s6,0.4,6,1s1.8,1,4,1s4,0.5,4,1c0,0.6,1.4,1,3,1c1.7,0,3,0.3,3,0.6c0,1.6-4.6,4.4-7.2,4.4c-1.5,0-2.8,0.5-2.8,1
		c0,0.6-0.8,1-1.8,1s-2.4,0.9-3.2,2c-1.5,2.1-7,2.8-7,1c0-0.5-0.9-1-2-1s-2,0.5-2,1c0,0.6-4.5,1-11.5,1S584,68.4,584,69s-0.9,1-2,1
		s-2,0.5-2,1c0,0.6-0.9,1-2,1s-2,0.5-2,1c0,0.6-3.8,1-9.5,1s-9.5-0.4-9.5-1c0-0.5-1.3-1-3-1c-1.6,0-3-0.4-3-1c0-0.5-1.3-1-3-1
		c-1.6,0-3-0.4-3-1s-2.9-1-6.8-1c-5.6,0-7,0.3-8.2,2c-0.8,1.1-2,2-2.8,2c-2.2,0-4.2,2.6-4.2,5.4c0,2.3-0.4,2.6-3.5,2.6
		c-1.9,0-3.5,0.5-3.5,1c0,0.6-3,1-7,1s-7-0.4-7-1s-3-1-7-1s-7,0.4-7,1s-0.9,1-2,1s-2,0.5-2,1c0,0.6-2,1-4.5,1s-4.5-0.4-4.5-1
		s-3.3-1-8-1s-8-0.4-8-1c0-0.5-0.9-1-2-1s-2,0.5-2,1c0,0.6-1.3,1-3,1c-1.6,0-3,0.5-3,1c0,0.6-0.9,1-2,1s-2,0.5-2,1c0,0.6-0.9,1-2,1
		s-2,0.5-2,1C441,88.6,426.7,88.2,425.3,86.5L425.3,86.5L425.3,86.5z"/>
</g>
</svg>
